<?xml version="1.0"?>
<!-- Generated by SVGo and Plotinum VG -->
<svg width="800pt" height="400pt" viewBox="0 0 800 400"
	xmlns="http://www.w3.org/2000/svg"
	xmlns:xlink="http://www.w3.org/1999/xlink">
<g transform="scale(1, -1) translate(0, -400)">
<path d="M0,0L800,0L800,400L0,400Z" style="fill:#FFFFFF" />
<text x="261.25" y="-383.45" transform="scale(1, -1)"
	style="font-family:Times;font-weight:normal;font-style:normal;font-size:12px">kvgo vs redis : Average Throughput (Queries Per Second)</text>
<text x="78.612" y="-38.74" transform="scale(1, -1)"
	style="font-family:Times;font-weight:normal;font-style:normal;font-size:10px">seq-write</text>
<text x="71.666" y="-28.74" transform="scale(1, -1)"
	style="font-family:Times;font-weight:normal;font-style:normal;font-size:10px">client-num:1</text>
<text x="139.5" y="-38.74" transform="scale(1, -1)"
	style="font-family:Times;font-weight:normal;font-style:normal;font-size:10px">seq-write</text>
<text x="130.05" y="-28.74" transform="scale(1, -1)"
	style="font-family:Times;font-weight:normal;font-style:normal;font-size:10px">client-num:10</text>
<text x="200.38" y="-38.74" transform="scale(1, -1)"
	style="font-family:Times;font-weight:normal;font-style:normal;font-size:10px">seq-write</text>
<text x="190.94" y="-28.74" transform="scale(1, -1)"
	style="font-family:Times;font-weight:normal;font-style:normal;font-size:10px">client-num:50</text>
<text x="262.94" y="-38.74" transform="scale(1, -1)"
	style="font-family:Times;font-weight:normal;font-style:normal;font-size:10px">seq-read</text>
<text x="254.32" y="-28.74" transform="scale(1, -1)"
	style="font-family:Times;font-weight:normal;font-style:normal;font-size:10px">client-num:1</text>
<text x="323.82" y="-38.74" transform="scale(1, -1)"
	style="font-family:Times;font-weight:normal;font-style:normal;font-size:10px">seq-read</text>
<text x="312.71" y="-28.74" transform="scale(1, -1)"
	style="font-family:Times;font-weight:normal;font-style:normal;font-size:10px">client-num:10</text>
<text x="384.71" y="-38.74" transform="scale(1, -1)"
	style="font-family:Times;font-weight:normal;font-style:normal;font-size:10px">seq-read</text>
<text x="373.59" y="-28.74" transform="scale(1, -1)"
	style="font-family:Times;font-weight:normal;font-style:normal;font-size:10px">client-num:50</text>
<text x="441.7" y="-38.74" transform="scale(1, -1)"
	style="font-family:Times;font-weight:normal;font-style:normal;font-size:10px">rand-write</text>
<text x="436.98" y="-28.74" transform="scale(1, -1)"
	style="font-family:Times;font-weight:normal;font-style:normal;font-size:10px">client-num:1</text>
<text x="502.59" y="-38.74" transform="scale(1, -1)"
	style="font-family:Times;font-weight:normal;font-style:normal;font-size:10px">rand-write</text>
<text x="495.36" y="-28.74" transform="scale(1, -1)"
	style="font-family:Times;font-weight:normal;font-style:normal;font-size:10px">client-num:10</text>
<text x="563.47" y="-38.74" transform="scale(1, -1)"
	style="font-family:Times;font-weight:normal;font-style:normal;font-size:10px">rand-write</text>
<text x="556.25" y="-28.74" transform="scale(1, -1)"
	style="font-family:Times;font-weight:normal;font-style:normal;font-size:10px">client-num:50</text>
<text x="626.03" y="-38.74" transform="scale(1, -1)"
	style="font-family:Times;font-weight:normal;font-style:normal;font-size:10px">rand-read</text>
<text x="619.63" y="-28.74" transform="scale(1, -1)"
	style="font-family:Times;font-weight:normal;font-style:normal;font-size:10px">client-num:1</text>
<text x="686.91" y="-38.74" transform="scale(1, -1)"
	style="font-family:Times;font-weight:normal;font-style:normal;font-size:10px">rand-read</text>
<text x="678.02" y="-28.74" transform="scale(1, -1)"
	style="font-family:Times;font-weight:normal;font-style:normal;font-size:10px">client-num:10</text>
<text x="747.8" y="-38.74" transform="scale(1, -1)"
	style="font-family:Times;font-weight:normal;font-style:normal;font-size:10px">rand-read</text>
<text x="738.9" y="-28.74" transform="scale(1, -1)"
	style="font-family:Times;font-weight:normal;font-style:normal;font-size:10px">client-num:50</text>
<g transform="rotate(90)">
<text x="173.07" y="16.555" transform="scale(1, -1)"
	style="font-family:Times;font-weight:normal;font-style:normal;font-size:12px">Throughput (QPS)</text>
</g>
<text x="40.416" y="-51.494" transform="scale(1, -1)"
	style="font-family:Times;font-weight:normal;font-style:normal;font-size:10px">0</text>
<text x="20.416" y="-199.4" transform="scale(1, -1)"
	style="font-family:Times;font-weight:normal;font-style:normal;font-size:10px">30000</text>
<text x="20.416" y="-347.3" transform="scale(1, -1)"
	style="font-family:Times;font-weight:normal;font-style:normal;font-size:10px">60000</text>
<path d="M47.916,56.216L55.916,56.216" style="fill:none;stroke:#000000;stroke-width:0.5" />
<path d="M47.916,204.12L55.916,204.12" style="fill:none;stroke:#000000;stroke-width:0.5" />
<path d="M47.916,352.02L55.916,352.02" style="fill:none;stroke:#000000;stroke-width:0.5" />
<path d="M51.916,105.52L55.916,105.52" style="fill:none;stroke:#000000;stroke-width:0.5" />
<path d="M51.916,154.82L55.916,154.82" style="fill:none;stroke:#000000;stroke-width:0.5" />
<path d="M51.916,253.42L55.916,253.42" style="fill:none;stroke:#000000;stroke-width:0.5" />
<path d="M51.916,302.72L55.916,302.72" style="fill:none;stroke:#000000;stroke-width:0.5" />
<path d="M55.916,56.216L55.916,379.58" style="fill:none;stroke:#000000;stroke-width:0.5" />
<path d="M82.215,56.216L82.215,92.492L97.215,92.492L97.215,56.216Z" style="fill:#0057E7" />
<path d="M143.1,56.216L143.1,178.01L158.1,178.01L158.1,56.216Z" style="fill:#0057E7" />
<path d="M203.99,56.216L203.99,180.93L218.99,180.93L218.99,56.216Z" style="fill:#0057E7" />
<path d="M264.87,56.216L264.87,98.768L279.87,98.768L279.87,56.216Z" style="fill:#0057E7" />
<path d="M325.76,56.216L325.76,275.89L340.76,275.89L340.76,56.216Z" style="fill:#0057E7" />
<path d="M386.64,56.216L386.64,378.37L401.64,378.37L401.64,56.216Z" style="fill:#0057E7" />
<path d="M447.53,56.216L447.53,92.423L462.53,92.423L462.53,56.216Z" style="fill:#0057E7" />
<path d="M508.41,56.216L508.41,178.89L523.41,178.89L523.41,56.216Z" style="fill:#0057E7" />
<path d="M569.3,56.216L569.3,181.64L584.3,181.64L584.3,56.216Z" style="fill:#0057E7" />
<path d="M630.18,56.216L630.18,99.152L645.18,99.152L645.18,56.216Z" style="fill:#0057E7" />
<path d="M691.07,56.216L691.07,277.08L706.07,277.08L706.07,56.216Z" style="fill:#0057E7" />
<path d="M751.95,56.216L751.95,379.58L766.95,379.58L766.95,56.216Z" style="fill:#0057E7" />
<path d="M97.215,56.216L97.215,205.77L112.22,205.77L112.22,56.216Z" style="fill:#D62D20" />
<path d="M158.1,56.216L158.1,197.39L173.1,197.39L173.1,56.216Z" style="fill:#D62D20" />
<path d="M218.99,56.216L218.99,197.46L233.99,197.46L233.99,56.216Z" style="fill:#D62D20" />
<path d="M279.87,56.216L279.87,243.36L294.87,243.36L294.87,56.216Z" style="fill:#D62D20" />
<path d="M340.76,56.216L340.76,242.46L355.76,242.46L355.76,56.216Z" style="fill:#D62D20" />
<path d="M401.64,56.216L401.64,241.08L416.64,241.08L416.64,56.216Z" style="fill:#D62D20" />
<path d="M462.53,56.216L462.53,206.51L477.53,206.51L477.53,56.216Z" style="fill:#D62D20" />
<path d="M523.41,56.216L523.41,197.94L538.41,197.94L538.41,56.216Z" style="fill:#D62D20" />
<path d="M584.3,56.216L584.3,197.54L599.3,197.54L599.3,56.216Z" style="fill:#D62D20" />
<path d="M645.18,56.216L645.18,243.12L660.18,243.12L660.18,56.216Z" style="fill:#D62D20" />
<path d="M706.07,56.216L706.07,242.16L721.07,242.16L721.07,56.216Z" style="fill:#D62D20" />
<path d="M766.95,56.216L766.95,242.45L781.95,242.45L781.95,56.216Z" style="fill:#D62D20" />
<path d="M97.215,56.216L766.95,56.216" style="fill:none;stroke:#495057;stroke-width:0.25" />
<path d="M97.215,204.12L766.95,204.12" style="fill:none;stroke:#495057;stroke-width:0.25" />
<path d="M97.215,352.02L766.95,352.02" style="fill:none;stroke:#495057;stroke-width:0.25" />
<path d="M304.68,10.889L304.68,19.722L324.68,19.722L324.68,10.889Z" style="fill:#0057E7" />
<text x="327.68" y="-11.111" transform="scale(1, -1)"
	style="font-family:Times;font-weight:normal;font-style:normal;font-size:12px">kvgo/node-x1</text>
<path d="M406.34,10.889L406.34,19.722L426.34,19.722L426.34,10.889Z" style="fill:#D62D20" />
<text x="429.34" y="-11.111" transform="scale(1, -1)"
	style="font-family:Times;font-weight:normal;font-style:normal;font-size:12px">redis/node-x1</text>
</g>
</svg>
