<?xml version="1.0"?>
<!-- Generated by SVGo and Plotinum VG -->
<svg width="800pt" height="400pt" viewBox="0 0 800 400"
	xmlns="http://www.w3.org/2000/svg"
	xmlns:xlink="http://www.w3.org/1999/xlink">
<g transform="scale(1, -1) translate(0, -400)">
<path d="M0,0L800,0L800,400L0,400Z" style="fill:#FFFFFF" />
<text x="281.25" y="-383.45" transform="scale(1, -1)"
	style="font-family:Times;font-weight:normal;font-style:normal;font-size:12px">kvgo : Average Throughput (Queries Per Second)</text>
<text x="91.112" y="-38.74" transform="scale(1, -1)"
	style="font-family:Times;font-weight:normal;font-style:normal;font-size:10px">seq-write</text>
<text x="84.166" y="-28.74" transform="scale(1, -1)"
	style="font-family:Times;font-weight:normal;font-style:normal;font-size:10px">client-num:1</text>
<text x="150.86" y="-38.74" transform="scale(1, -1)"
	style="font-family:Times;font-weight:normal;font-style:normal;font-size:10px">seq-write</text>
<text x="141.41" y="-28.74" transform="scale(1, -1)"
	style="font-family:Times;font-weight:normal;font-style:normal;font-size:10px">client-num:10</text>
<text x="210.61" y="-38.74" transform="scale(1, -1)"
	style="font-family:Times;font-weight:normal;font-style:normal;font-size:10px">seq-write</text>
<text x="201.16" y="-28.74" transform="scale(1, -1)"
	style="font-family:Times;font-weight:normal;font-style:normal;font-size:10px">client-num:50</text>
<text x="272.03" y="-38.74" transform="scale(1, -1)"
	style="font-family:Times;font-weight:normal;font-style:normal;font-size:10px">seq-read</text>
<text x="263.41" y="-28.74" transform="scale(1, -1)"
	style="font-family:Times;font-weight:normal;font-style:normal;font-size:10px">client-num:1</text>
<text x="331.78" y="-38.74" transform="scale(1, -1)"
	style="font-family:Times;font-weight:normal;font-style:normal;font-size:10px">seq-read</text>
<text x="320.66" y="-28.74" transform="scale(1, -1)"
	style="font-family:Times;font-weight:normal;font-style:normal;font-size:10px">client-num:10</text>
<text x="391.53" y="-38.74" transform="scale(1, -1)"
	style="font-family:Times;font-weight:normal;font-style:normal;font-size:10px">seq-read</text>
<text x="380.41" y="-28.74" transform="scale(1, -1)"
	style="font-family:Times;font-weight:normal;font-style:normal;font-size:10px">client-num:50</text>
<text x="447.38" y="-38.74" transform="scale(1, -1)"
	style="font-family:Times;font-weight:normal;font-style:normal;font-size:10px">rand-write</text>
<text x="442.66" y="-28.74" transform="scale(1, -1)"
	style="font-family:Times;font-weight:normal;font-style:normal;font-size:10px">client-num:1</text>
<text x="507.13" y="-38.74" transform="scale(1, -1)"
	style="font-family:Times;font-weight:normal;font-style:normal;font-size:10px">rand-write</text>
<text x="499.91" y="-28.74" transform="scale(1, -1)"
	style="font-family:Times;font-weight:normal;font-style:normal;font-size:10px">client-num:10</text>
<text x="566.88" y="-38.74" transform="scale(1, -1)"
	style="font-family:Times;font-weight:normal;font-style:normal;font-size:10px">rand-write</text>
<text x="559.66" y="-28.74" transform="scale(1, -1)"
	style="font-family:Times;font-weight:normal;font-style:normal;font-size:10px">client-num:50</text>
<text x="628.3" y="-38.74" transform="scale(1, -1)"
	style="font-family:Times;font-weight:normal;font-style:normal;font-size:10px">rand-read</text>
<text x="621.9" y="-28.74" transform="scale(1, -1)"
	style="font-family:Times;font-weight:normal;font-style:normal;font-size:10px">client-num:1</text>
<text x="688.05" y="-38.74" transform="scale(1, -1)"
	style="font-family:Times;font-weight:normal;font-style:normal;font-size:10px">rand-read</text>
<text x="679.15" y="-28.74" transform="scale(1, -1)"
	style="font-family:Times;font-weight:normal;font-style:normal;font-size:10px">client-num:10</text>
<text x="747.8" y="-38.74" transform="scale(1, -1)"
	style="font-family:Times;font-weight:normal;font-style:normal;font-size:10px">rand-read</text>
<text x="738.9" y="-28.74" transform="scale(1, -1)"
	style="font-family:Times;font-weight:normal;font-style:normal;font-size:10px">client-num:50</text>
<g transform="rotate(90)">
<text x="173.07" y="16.555" transform="scale(1, -1)"
	style="font-family:Times;font-weight:normal;font-style:normal;font-size:12px">Throughput (QPS)</text>
</g>
<text x="45.416" y="-51.494" transform="scale(1, -1)"
	style="font-family:Times;font-weight:normal;font-style:normal;font-size:10px">0</text>
<text x="20.416" y="-179.32" transform="scale(1, -1)"
	style="font-family:Times;font-weight:normal;font-style:normal;font-size:10px">100000</text>
<text x="20.416" y="-307.15" transform="scale(1, -1)"
	style="font-family:Times;font-weight:normal;font-style:normal;font-size:10px">200000</text>
<path d="M52.916,56.216L60.916,56.216" style="fill:none;stroke:#000000;stroke-width:0.5" />
<path d="M52.916,184.04L60.916,184.04" style="fill:none;stroke:#000000;stroke-width:0.5" />
<path d="M52.916,311.87L60.916,311.87" style="fill:none;stroke:#000000;stroke-width:0.5" />
<path d="M56.916,81.781L60.916,81.781" style="fill:none;stroke:#000000;stroke-width:0.5" />
<path d="M56.916,107.35L60.916,107.35" style="fill:none;stroke:#000000;stroke-width:0.5" />
<path d="M56.916,132.91L60.916,132.91" style="fill:none;stroke:#000000;stroke-width:0.5" />
<path d="M56.916,158.48L60.916,158.48" style="fill:none;stroke:#000000;stroke-width:0.5" />
<path d="M56.916,209.61L60.916,209.61" style="fill:none;stroke:#000000;stroke-width:0.5" />
<path d="M56.916,235.17L60.916,235.17" style="fill:none;stroke:#000000;stroke-width:0.5" />
<path d="M56.916,260.74L60.916,260.74" style="fill:none;stroke:#000000;stroke-width:0.5" />
<path d="M56.916,286.3L60.916,286.3" style="fill:none;stroke:#000000;stroke-width:0.5" />
<path d="M56.916,337.43L60.916,337.43" style="fill:none;stroke:#000000;stroke-width:0.5" />
<path d="M56.916,363L60.916,363" style="fill:none;stroke:#000000;stroke-width:0.5" />
<path d="M60.916,56.216L60.916,379.58" style="fill:none;stroke:#000000;stroke-width:0.5" />
<path d="M87.215,56.216L87.215,88.978L102.22,88.978L102.22,56.216Z" style="fill:#0057E7" />
<path d="M146.96,56.216L146.96,87.797L161.96,87.797L161.96,56.216Z" style="fill:#0057E7" />
<path d="M206.71,56.216L206.71,85.875L221.71,85.875L221.71,56.216Z" style="fill:#0057E7" />
<path d="M266.46,56.216L266.46,125.61L281.46,125.61L281.46,56.216Z" style="fill:#0057E7" />
<path d="M326.21,56.216L326.21,377L341.21,377L341.21,56.216Z" style="fill:#0057E7" />
<path d="M385.96,56.216L385.96,368.91L400.96,368.91L400.96,56.216Z" style="fill:#0057E7" />
<path d="M445.71,56.216L445.71,88.356L460.71,88.356L460.71,56.216Z" style="fill:#0057E7" />
<path d="M505.46,56.216L505.46,88.229L520.46,88.229L520.46,56.216Z" style="fill:#0057E7" />
<path d="M565.2,56.216L565.2,86.323L580.2,86.323L580.2,56.216Z" style="fill:#0057E7" />
<path d="M624.95,56.216L624.95,125.77L639.95,125.77L639.95,56.216Z" style="fill:#0057E7" />
<path d="M684.7,56.216L684.7,373.31L699.7,373.31L699.7,56.216Z" style="fill:#0057E7" />
<path d="M744.45,56.216L744.45,379.58L759.45,379.58L759.45,56.216Z" style="fill:#0057E7" />
<path d="M102.22,56.216L102.22,65.621L117.22,65.621L117.22,56.216Z" style="fill:#D62D20" />
<path d="M161.96,56.216L161.96,87.793L176.96,87.793L176.96,56.216Z" style="fill:#D62D20" />
<path d="M221.71,56.216L221.71,88.552L236.71,88.552L236.71,56.216Z" style="fill:#D62D20" />
<path d="M281.46,56.216L281.46,67.248L296.46,67.248L296.46,56.216Z" style="fill:#D62D20" />
<path d="M341.21,56.216L341.21,113.17L356.21,113.17L356.21,56.216Z" style="fill:#D62D20" />
<path d="M400.96,56.216L400.96,139.74L415.96,139.74L415.96,56.216Z" style="fill:#D62D20" />
<path d="M460.71,56.216L460.71,65.603L475.71,65.603L475.71,56.216Z" style="fill:#D62D20" />
<path d="M520.46,56.216L520.46,88.023L535.46,88.023L535.46,56.216Z" style="fill:#D62D20" />
<path d="M580.2,56.216L580.2,88.736L595.2,88.736L595.2,56.216Z" style="fill:#D62D20" />
<path d="M639.95,56.216L639.95,67.348L654.95,67.348L654.95,56.216Z" style="fill:#D62D20" />
<path d="M699.7,56.216L699.7,113.48L714.7,113.48L714.7,56.216Z" style="fill:#D62D20" />
<path d="M759.45,56.216L759.45,140.06L774.45,140.06L774.45,56.216Z" style="fill:#D62D20" />
<path d="M117.22,56.216L117.22,59.179L132.22,59.179L132.22,56.216Z" style="fill:#FFA700" />
<path d="M176.96,56.216L176.96,63.943L191.96,63.943L191.96,56.216Z" style="fill:#FFA700" />
<path d="M236.71,56.216L236.71,64.806L251.71,64.806L251.71,56.216Z" style="fill:#FFA700" />
<path d="M296.46,56.216L296.46,66.464L311.46,66.464L311.46,56.216Z" style="fill:#FFA700" />
<path d="M356.21,56.216L356.21,112.78L371.21,112.78L371.21,56.216Z" style="fill:#FFA700" />
<path d="M415.96,56.216L415.96,131.69L430.96,131.69L430.96,56.216Z" style="fill:#FFA700" />
<path d="M475.71,56.216L475.71,59.192L490.71,59.192L490.71,56.216Z" style="fill:#FFA700" />
<path d="M535.46,56.216L535.46,63.944L550.46,63.944L550.46,56.216Z" style="fill:#FFA700" />
<path d="M595.2,56.216L595.2,64.867L610.2,64.867L610.2,56.216Z" style="fill:#FFA700" />
<path d="M654.95,56.216L654.95,66.547L669.95,66.547L669.95,56.216Z" style="fill:#FFA700" />
<path d="M714.7,56.216L714.7,112.6L729.7,112.6L729.7,56.216Z" style="fill:#FFA700" />
<path d="M774.45,56.216L774.45,131.69L789.45,131.69L789.45,56.216Z" style="fill:#FFA700" />
<path d="M109.72,56.216L766.95,56.216" style="fill:none;stroke:#495057;stroke-width:0.25" />
<path d="M109.72,184.04L766.95,184.04" style="fill:none;stroke:#495057;stroke-width:0.25" />
<path d="M109.72,311.87L766.95,311.87" style="fill:none;stroke:#495057;stroke-width:0.25" />
<path d="M257.18,10.889L257.18,19.722L277.18,19.722L277.18,10.889Z" style="fill:#0057E7" />
<text x="280.18" y="-11.111" transform="scale(1, -1)"
	style="font-family:Times;font-weight:normal;font-style:normal;font-size:12px">kvgo/embed</text>
<path d="M351.5,10.889L351.5,19.722L371.5,19.722L371.5,10.889Z" style="fill:#D62D20" />
<text x="374.5" y="-11.111" transform="scale(1, -1)"
	style="font-family:Times;font-weight:normal;font-style:normal;font-size:12px">kvgo/node-x1</text>
<path d="M453.16,10.889L453.16,19.722L473.16,19.722L473.16,10.889Z" style="fill:#FFA700" />
<text x="476.16" y="-11.111" transform="scale(1, -1)"
	style="font-family:Times;font-weight:normal;font-style:normal;font-size:12px">kvgo/node-x3</text>
</g>
</svg>
